<svg xmlns="http://www.w3.org/2000/svg" viewBox="0 0 566.82 579.51"><defs><style>.cls-1{fill:#073669;}.cls-1,.cls-5{opacity:0.1;}.cls-12,.cls-16,.cls-2{fill:#00717e;}.cls-2{opacity:0.44;}.cls-3,.cls-9{fill:#366d8b;}.cls-4{fill:#c7dafb;opacity:0.47;}.cls-6,.cls-7{fill:#c7daf2;}.cls-10,.cls-15,.cls-16,.cls-7,.cls-8,.cls-9{fill-rule:evenodd;}.cls-13,.cls-8{fill:#fff;}.cls-10{fill:#f0f4ff;}.cls-11{fill:#d2e6f9;}.cls-14{fill:#11345e;}.cls-15{fill:#d1d4eb;}.cls-17{fill:#c8e6eb;}.cls-18{fill:#9ebbdb;}.cls-19{fill:#fcae6e;}.cls-20{fill:#f29955;}.cls-21{fill:#111b33;}.cls-22{fill:#1b2851;}.cls-23{fill:#033f75;}</style></defs><title>Login-illustration</title><g id="Layer_3" data-name="Layer 3"><ellipse class="cls-1" cx="283.41" cy="443.81" rx="276.79" ry="129.77"/><path class="cls-2" d="M235.64,439.57l-12-1.86-4.43,9.55,12,1.86a11.23,11.23,0,0,0,3,6.37l-8.8,5.08,12.11,7,8.8-5.08a44.3,44.3,0,0,0,11,1.71l3.22,6.94,16.54-2.56-3.22-6.94a30.24,30.24,0,0,0,4.46-2.09,22.16,22.16,0,0,0,3.62-2.58l12,1.86,4.43-9.55-12-1.86a11.23,11.23,0,0,0-3-6.37l8.8-5.08-12.11-7-8.8,5.08a44.3,44.3,0,0,0-11-1.71L257,425.41,240.5,428l3.22,6.94a30.24,30.24,0,0,0-4.46,2.09A22.17,22.17,0,0,0,235.64,439.57Zm13.33,3c5.42-3.13,14.21-3.13,19.62,0s5.42,8.2,0,11.33-14.21,3.13-19.62,0S243.56,445.74,249,442.61Z"/><path class="cls-3" d="M247.42,452.87c-3.8-3.13-3.29-7.47,1.55-10.26,5.42-3.13,14.21-3.13,19.62,0,4.32,2.49,5.19,6.22,2.62,9.22a10,10,0,0,0-2.62-2.11c-5.42-3.13-14.21-3.13-19.62,0a10,10,0,0,0-2.62,2.11A8.69,8.69,0,0,0,247.42,452.87Z"/><path class="cls-3" d="M278.32,459.55a22.16,22.16,0,0,0,3.62-2.58l12,1.86,4.4-9.48h0l0,.07h0l0,.07h0l0,.07h0l0,.07h0l0,.07h0l0,.07h0l0,.07h0l0,.07h0l0,.07h0l0,.07h0l0,.07h0l0,.07h0l0,.07h0l0,.07h0l0,.07h0l0,.07h0l0,.07h0l0,.07h0l0,.07h0l0,.07h0l0,.07h0l0,.07h0l0,.07h0l0,.07h0l0,.07h0l0,.07h0l0,.07h0l0,.07h0l0,.07h0l0,.07h0l0,.07h0l0,.07h0l0,.07h0l0,.07h0l0,.07h0l0,.07h0l0,.07h0l0,.07h0l0,.07h0l0,.07h0l0,.07h0l0,.07h0l0,.07h0l0,.07h0l0,.07h0l0,.07h0l0,.07h0l0,.07h0l0,.07h0l0,.07h0l0,.07h0l0,.07h0l0,.07h0l0,.07h0l0,.07h0l0,.07h0l0,.07h0l0,.07h0l0,.07h0l0,.07h0l0,.07h0l0,.07h0l0,.07h0l0,.07h0l0,.07h0l0,.07h0l0,.07h0l0,.07h0l0,.07h0l0,.07h0l0,.07h0l0,.07h0l0,.07h0l0,.07h0l0,.07h0l0,.07h0l0,.07h0l0,.07h0l0,.07h0l0,.07h0l0,.07h0l0,.07h0l0,.07h0l0,.07h0l0,.07h0l0,.07h0l0,.07h0l0,.07h0l0,.07h0l0,.07h0l0,.07h0l0,.07h0l0,.07h0l0,.07h0l0,.07h0l0,.07h0l0,.07h0l0,.07h0l0,.07h0l0,.07h0L294,465.94l-12-1.86a22.15,22.15,0,0,1-3.62,2.58c-.55.32-1.13.62-1.71.9l.47,1-3.22-6.94A30.24,30.24,0,0,0,278.32,459.55Z"/><path class="cls-3" d="M237.48,467.57l8.8-5.08a44.3,44.3,0,0,0,11,1.71l3.22,6.94,16.54-2.56h0l0,.07h0l0,.07h0l0,.07h0l0,.07h0l0,.07h0l0,.07h0l0,.07h0l0,.07h0l0,.07h0l0,.07h0l0,.07h0l0,.07h0l0,.07h0l0,.07h0l0,.07h0l0,.07h0l0,.07h0l0,.07h0l0,.07h0l0,.07h0l0,.07h0l0,.07h0l0,.07h0l0,.07h0l0,.07h0l0,.07h0l0,.07h0l0,.07h0l0,.07h0l0,.07h0l0,.07h0l0,.07h0l0,.07h0l0,.07h0l0,.07h0l0,.07h0l0,.07h0l0,.07h0l0,.07h0l0,.07h0l0,.07h0l0,.07h0l0,.07h0l0,.07h0l0,.07h0l0,.07h0l0,.07h0l0,.07h0l0,.07h0l0,.07h0l0,.07h0l0,.07h0l0,.07h0l0,.07h0l0,.07h0l0,.07h0l0,.07h0l0,.07h0l0,.07h0l0,.07h0l0,.07h0l0,.07h0l0,.07h0l0,.07h0l0,.07h0l0,.07h0l0,.07h0l0,.07h0l0,.07h0l0,.07h0l0,.07h0l0,.07h0l0,.07h0l0,.07h0l0,.07h0l0,.07h0l0,.07h0l0,.07h0l0,.07h0l0,.07h0l0,.07h0l0,.07h0l0,.07h0l0,.07h0l0,.07h0l0,.07h0l0,.07h0l0,.07h0l0,.07h0l0,.07h0l0,.07h0l0,.07h0l0,.07h0l0,.07h0l0,.07h0l0,.07h0l0,.07h0l0,.07h0l0,.07h0l0,.07h0l0,.07-16.54,2.56-3.22-6.94a44.3,44.3,0,0,1-11-1.71l-8.8,5.08-12.11-7,.06,0-.06,0,.06,0-.06,0,.06,0-.06,0,.06,0-.06,0,.06,0-.06,0,.06,0-.06,0,.06,0-.06,0,.06,0-.06,0,.06,0-.06,0,.06,0-.06,0,.06,0-.06,0,.06,0-.06,0,.06,0-.06,0,.06,0-.06,0,.06,0-.06,0,.06,0-.06,0,.06,0-.06,0,.06,0-.06,0,.06,0-.06,0,.06,0-.06,0,.06,0-.06,0,.06,0-.06,0,.06,0-.06,0,.06,0-.06,0,.06,0-.06,0,.06,0-.06,0,.06,0-.06,0,.06,0-.06,0,.06,0-.06,0,.06,0-.06,0,.06,0-.06,0,.06,0-.06,0,.06,0-.06,0,.06,0-.06,0,.06,0-.06,0,.06,0-.06,0,.06,0-.06,0,.06,0-.06,0,.06,0-.06,0,.06,0-.06,0,.06,0-.06,0,.06,0-.06,0,.06,0-.06,0,.06,0-.06,0,.06,0-.06,0,.06,0-.06,0,.06,0-.06,0,.06,0-.06,0,.06,0-.06,0,.06,0-.06,0,.06,0-.06,0,.06,0-.06,0,.06,0-.06,0,.06,0-.06,0,.06,0-.06,0,.06,0-.06,0,.06,0-.06,0,.06,0-.06,0,.06,0-.06,0,.06,0-.06,0,.06,0-.06,0,.06,0-.06,0,.06,0-.06,0,.06,0-.06,0,.06,0-.06,0,.06,0-.06,0,.06,0-.06,0,.06,0-.06,0,.06,0-.06,0,.06,0-.06,0,.06,0-.06,0,.06,0-.06,0,.06,0-.06,0,.06,0-.06,0,.06,0-.06,0,.06,0-.06,0,.06,0-.06,0,.06,0-.06,0,.06,0-.06,0,.06,0-.06,0,.06,0-.06,0,.06,0-.06,0,.06,0-.06,0,.06,0-.06,0,.06,0-.06,0,.06,0-.06,0,.06,0-.06,0,.06,0-.06,0,.06,0-.06,0,.06,0-.06,0,.06,0-.06,0,.06,0-.06,0,.06,0-.06,0,.06,0-.06,0,.06,0-.06,0,.06,0-.06,0,.06,0-.06,0,.06,0-.06,0,.06,0-.06,0,.06,0-.06,0,.06,0-.06,0Z"/><path class="cls-3" d="M219.22,447.27h0l12,1.86a11.23,11.23,0,0,0,3,6.37l-2.82,1.63c-.06-.3-.1-.59-.13-.89l-12-1.86,0-.07h0l0-.07h0l0-.07h0l0-.07h0l0-.07h0l0-.07h0l0-.07h0l0-.07h0l0-.07h0l0-.07h0l0-.07h0l0-.07h0l0-.07h0l0-.07h0l0-.07h0l0-.07h0l0-.07h0l0-.07h0l0-.07h0l0-.07h0l0-.07h0l0-.07h0l0-.07h0l0-.07h0l0-.07h0l0-.07h0l0-.07h0l0-.07h0l0-.07h0l0-.07h0l0-.07h0l0-.07h0l0-.07h0l0-.07h0l0-.07h0l0-.07h0l0-.07h0l0-.07h0l0-.07h0l0-.07h0l0-.07h0l0-.07h0l0-.07h0l0-.07h0l0-.07h0l0-.07h0l0-.07h0l0-.07h0l0-.07h0l0-.07h0l0-.07h0l0-.07h0l0-.07h0l0-.07h0l0-.07h0l0-.07h0l0-.07h0l0-.07h0l0-.07h0l0-.07h0l0-.07h0l0-.07h0l0-.07h0l0-.07h0l0-.07h0l0-.07h0l0-.07h0l0-.07h0l0-.07h0l0-.07h0l0-.07h0l0-.07h0l0-.07h0l0-.07h0l0-.07h0l0-.07h0l0-.07h0l0-.07h0l0-.07h0l0-.07h0l0-.07h0l0-.07h0l0-.07h0l0-.07h0l0-.07h0l0-.07h0l0-.07h0l0-.07h0l0-.07h0l0-.07h0l0-.07h0l0-.07h0l0-.07h0l0-.07h0l0-.07h0l0-.07h0l0-.07h0l0-.07h0l0-.07h0l0-.07h0Z"/><path class="cls-3" d="M241,436.1l-.47-1h0l0-.07h0l0-.07h0l0-.07h0l0-.07h0l0-.07h0l0-.07h0l0-.07h0l0-.07h0l0-.07h0l0-.07h0l0-.07h0l0-.07h0l0-.07h0l0-.07h0l0-.07h0l0-.07h0l0-.07h0l0-.07h0l0-.07h0l0-.07h0l0-.07h0l0-.07h0l0-.07h0l0-.07h0l0-.07h0l0-.07h0l0-.07h0l0-.07h0l0-.07h0l0-.07h0l0-.07h0l0-.07h0l0-.07h0l0-.07h0l0-.07h0l0-.07h0l0-.07h0l0-.07h0l0-.07h0l0-.07h0l0-.07h0l0-.07h0l0-.07h0l0-.07h0l0-.07h0l0-.07h0l0-.07h0l0-.07h0l0-.07h0l0-.07h0l0-.07h0l0-.07h0l0-.07h0l0-.07h0l0-.07h0l0-.07h0l0-.07h0l0-.07h0l0-.07h0l0-.07h0l0-.07h0l0-.07h0l0-.07h0l0-.07h0l0-.07h0l0-.07h0l0-.07h0l0-.07h0l0-.07h0l0-.07h0l0-.07h0l0-.07h0l0-.07h0l0-.07h0l0-.07h0l0-.07h0l0-.07h0l0-.07h0l0-.07h0l0-.07h0l0-.07h0l0-.07h0l0-.07h0l0-.07h0l0-.07h0l0-.07h0l0-.07h0l0-.07h0l0-.07h0l0-.07h0l0-.07h0l0-.07h0l0-.07h0l0-.07h0l0-.07h0l0-.07h0l0-.07h0l0-.07h0l0-.07h0l0-.07h0l3.19,6.87c-.95.36-1.87.76-2.75,1.19Z"/><path class="cls-3" d="M286.23,446.53a11.61,11.61,0,0,0-2.82-5.48l8.8-5.08-.06,0,.06,0-.06,0,.06,0-.06,0,.06,0-.06,0,.06,0-.06,0,.06,0-.06,0,.06,0-.06,0,.06,0-.06,0,.06,0-.06,0,.06,0-.06,0,.06,0-.06,0,.06,0-.06,0,.06,0-.06,0,.06,0-.06,0,.06,0-.06,0,.06,0-.06,0,.06,0-.06,0,.06,0-.06,0,.06,0-.06,0,.06,0-.06,0,.06,0-.06,0,.06,0-.06,0,.06,0-.06,0,.06,0-.06,0,.06,0-.06,0,.06,0-.06,0,.06,0-.06,0,.06,0-.06,0,.06,0-.06,0,.06,0-.06,0,.06,0-.06,0,.06,0-.06,0,.06,0-.06,0,.06,0-.06,0,.06,0-.06,0,.06,0-.06,0,.06,0-.06,0,.06,0-.06,0,.06,0-.06,0,.06,0-.06,0,.06,0-.06,0,.06,0-.06,0,.06,0-.06,0,.06,0-.06,0,.06,0-.06,0,.06,0-.06,0,.06,0-.06,0,.06,0-.06,0,.06,0-.06,0,.06,0-.06,0,.06,0-.06,0,.06,0-.06,0,.06,0-.06,0,.06,0-.06,0,.06,0-.06,0,.06,0-.06,0,.06,0-.06,0,.06,0-.06,0,.06,0-.06,0,.06,0-.06,0,.06,0-.06,0,.06,0-.06,0,.06,0-.06,0,.06,0-.06,0,.06,0-.06,0,.06,0-.06,0,.06,0-.06,0,.06,0-.06,0,.06,0-.06,0,.06,0-.06,0,.06,0-.06,0,.06,0-.06,0,.06,0-.06,0,.06,0-.06,0,.06,0-.06,0,.06,0-.06,0,.06,0-.06,0,.06,0-.06,0,.06,0-.06,0,.06,0-.06,0,.06,0-.06,0,.06,0-.06,0,.06,0-.06,0,.06,0-.06,0,.06,0-.06,0,.06,0-.06,0,.06,0-.06,0,.06,0-.06,0,.06,0-.06,0,.06,0-.06,0,.06,0-.06,0,.06,0-.06,0,.06,0-.06,0,.06,0-.06,0,.06,0-.06,0,.06,0-.06,0,.06,0-.06,0,.06,0-.06,0,.06,0-.06,0,.06,0-.06,0,.06,0-.06,0,.06,0Z"/><path class="cls-2" d="M297.57,403.29,289.26,402l-3.06,6.6,8.31,1.29a7.76,7.76,0,0,0,2,4.4l-6.08,3.51,8.37,4.83,6.08-3.51a30.61,30.61,0,0,0,7.62,1.18l2.23,4.8,11.43-1.77L324,418.53a20.89,20.89,0,0,0,3.08-1.44,15.31,15.31,0,0,0,2.5-1.78l8.31,1.28,3.06-6.6-8.31-1.29a7.76,7.76,0,0,0-2-4.4l6.08-3.51L328.28,396l-6.08,3.51a30.61,30.61,0,0,0-7.62-1.18l-2.23-4.8-11.43,1.77,2.23,4.79a20.89,20.89,0,0,0-3.08,1.44A15.32,15.32,0,0,0,297.57,403.29Zm9.21,2.1a15,15,0,0,1,13.56,0c3.74,2.16,3.74,5.67,0,7.83a15,15,0,0,1-13.56,0C303,411.05,303,407.55,306.78,405.39Z"/><path class="cls-3" d="M305.71,412.47c-2.63-2.16-2.27-5.16,1.07-7.09a15,15,0,0,1,13.56,0c3,1.72,3.59,4.3,1.81,6.37a6.92,6.92,0,0,0-1.81-1.46,15,15,0,0,0-13.56,0,6.93,6.93,0,0,0-1.81,1.46A6,6,0,0,0,305.71,412.47Z"/><path class="cls-3" d="M327.05,417.09a15.31,15.31,0,0,0,2.5-1.78l8.31,1.28,3-6.55h0l0,0h0l0,0h0l0,0h0l0,0h0l0,0h0l0,0h0l0,0h0l0,0h0l0,0h0l0,0h0l0,0h0l0,0h0l0,0h0l0,0h0l0,0h0l0,0h0l0,0h0l0,0h0l0,0h0l0,0h0l0,0h0l0,0h0l0,0h0l0,0h0l0,0h0l0,0h0l0,0h0l0,0h0l0,0h0l0,0h0l0,0h0l0,0h0l0,0h0l0,0h0l0,0h0l0,0h0l0,0h0l0,0h0l0,0h0l0,0h0l0,0h0l0,0h0l0,0h0l0,0h0l0,0h0l0,0h0l0,0h0l0,0h0l0,0h0l0,0h0l0,0h0l0,0h0l0,0h0l0,0h0l0,0h0l0,0h0l0,0h0l0,0h0l0,0h0l0,0h0l0,0h0l0,0h0l0,0h0l0,0h0l0,0h0l0,0h0l0,0h0l0,0h0l0,0h0l0,0h0l0,0h0l0,0h0l0,0h0l0,0h0l0,0h0l0,0h0l0,0h0l0,0h0l0,0h0l0,0h0l0,0h0l0,0h0l0,0h0l0,0h0l0,0h0l0,0h0l0,0h0l0,0h0l0,0h0l0,0h0l0,0h0l0,0h0l0,0h0l0,0h0l0,0h0l0,0h0l0,0h0l0,0h0l0,0h0l0,0h0l-3.06,6.6-8.31-1.28a15.31,15.31,0,0,1-2.5,1.78c-.38.22-.78.43-1.18.62l.33.7L324,418.53A20.89,20.89,0,0,0,327.05,417.09Z"/><path class="cls-3" d="M298.84,422.63l6.08-3.51a30.61,30.61,0,0,0,7.62,1.18l2.23,4.8,11.43-1.77h0l0,0h0l0,0h0l0,0h0l0,0h0l0,0h0l0,0h0l0,0h0l0,0h0l0,0h0l0,0h0l0,0h0l0,0h0l0,0h0l0,0h0l0,0h0l0,0h0l0,0h0l0,0h0l0,0h0l0,0h0l0,0h0l0,0h0l0,0h0l0,0h0l0,0h0l0,0h0l0,0h0l0,0h0l0,0h0l0,0h0l0,0h0l0,0h0l0,0h0l0,0h0l0,0h0l0,0h0l0,0h0l0,0h0l0,0h0l0,0h0l0,0h0l0,0h0l0,0h0l0,0h0l0,0h0l0,0h0l0,0h0l0,0h0l0,0h0l0,0h0l0,0h0l0,0h0l0,0h0l0,0h0l0,0h0l0,0h0l0,0h0l0,0h0l0,0h0l0,0h0l0,0h0l0,0h0l0,0h0l0,0h0l0,0h0l0,0h0l0,0h0l0,0h0l0,0h0l0,0h0l0,0h0l0,0h0l0,0h0l0,0h0l0,0h0l0,0h0l0,0h0l0,0h0l0,0h0l0,0h0l0,0h0l0,0h0l0,0h0l0,0h0l0,0h0l0,0h0l0,0h0l0,0h0l0,0h0l0,0h0l0,0h0l0,0h0l0,0h0l0,0h0l0,0h0l0,0h0l0,0h0l0,0h0l0,0h0l0,0h0l0,0L314.77,430l-2.23-4.8a30.61,30.61,0,0,1-7.62-1.18l-6.08,3.51-8.37-4.83,0,0,0,0,0,0,0,0,0,0,0,0,0,0,0,0,0,0,0,0,0,0,0,0,0,0,0,0,0,0,0,0,0,0,0,0,0,0,0,0,0,0,0,0,0,0,0,0,0,0,0,0,0,0,0,0,0,0,0,0,0,0,0,0,0,0,0,0,0,0,0,0,0,0,0,0,0,0,0,0,0,0,0,0,0,0,0,0,0,0,0,0,0,0,0,0,0,0,0,0,0,0,0,0,0,0,0,0,0,0,0,0,0,0,0,0,0,0,0,0,0,0,0,0,0,0,0,0,0,0,0,0,0,0,0,0,0,0,0,0,0,0,0,0,0,0,0,0,0,0,0,0,0,0,0,0,0,0,0,0,0,0,0,0,0,0,0,0,0,0,0,0,0,0,0,0,0,0,0,0,0,0,0,0,0,0,0,0,0,0,0,0,0,0,0,0,0,0,0,0,0,0,0,0,0,0,0,0,0,0,0,0,0,0,0,0,0,0,0,0,0,0,0,0,0,0,0,0,0,0,0,0,0,0,0,0,0,0,0,0,0,0,0,0,0,0,0,0,0,0,0,0,0,0,0,0,0,0,0,0,0,0,0,0,0,0,0,0,0,0,0,0,0,0,0,0,0,0,0,0,0,0,0,0,0,0,0,0,0,0,0,0,0,0,0,0,0,0,0,0,0,0,0,0,0,0,0,0,0,0,0,0,0,0,0,0,0,0,0,0,0,0,0,0,0,0,0,0,0,0,0,0,0,0,0,0,0,0,0,0,0,0,0,0,0,0,0,0,0,0,0,0,0,0,0,0,0,0,0,0,0,0,0,0,0,0,0,0,0,0,0,0,0,0,0,0,0,0,0,0,0,0,0,0,0,0,0,0,0,0,0,0,0,0,0,0,0,0,0,0,0,0,0,0Z"/><path class="cls-3" d="M286.22,408.61h0l8.31,1.29a7.76,7.76,0,0,0,2,4.4l-2,1.13c0-.21-.07-.41-.09-.62l-8.31-1.29,0,0h0l0,0h0l0,0h0l0,0h0l0,0h0l0,0h0l0,0h0l0,0h0l0,0h0l0,0h0l0,0h0l0,0h0l0,0h0l0,0h0l0,0h0l0,0h0l0,0h0l0,0h0l0,0h0l0,0h0l0,0h0l0,0h0l0,0h0l0,0h0l0,0h0l0,0h0l0,0h0l0,0h0l0,0h0l0,0h0l0,0h0l0,0h0l0,0h0l0,0h0l0,0h0l0,0h0l0,0h0l0,0h0l0,0h0l0,0h0l0,0h0l0,0h0l0,0h0l0,0h0l0,0h0l0,0h0l0,0h0l0,0h0l0,0h0l0,0h0l0,0h0l0,0h0l0,0h0l0,0h0l0,0h0l0,0h0l0,0h0l0,0h0l0,0h0l0,0h0l0,0h0l0,0h0l0,0h0l0,0h0l0,0h0l0,0h0l0,0h0l0,0h0l0,0h0l0,0h0l0,0h0l0,0h0l0,0h0l0,0h0l0,0h0l0,0h0l0,0h0l0,0h0l0,0h0l0,0h0l0,0h0l0,0h0l0,0h0l0,0h0l0,0h0l0,0h0l0,0h0l0,0h0l0,0h0l0,0h0l0,0h0l0,0h0l0,0h0l0,0h0l0,0h0l0,0h0l0,0h0l0,0h0l0,0h0l0,0h0Z"/><path class="cls-3" d="M301.25,400.89l-.33-.7h0l0,0h0l0,0h0l0,0h0l0,0h0l0,0h0l0,0h0l0,0h0l0,0h0l0,0h0l0,0h0l0,0h0l0,0h0l0,0h0l0,0h0l0,0h0l0,0h0l0,0h0l0,0h0l0,0h0l0,0h0l0,0h0l0,0h0l0,0h0l0,0h0l0,0h0l0,0h0l0,0h0l0,0h0l0,0h0l0,0h0l0,0h0l0,0h0l0,0h0l0,0h0l0,0h0l0,0h0l0,0h0l0,0h0l0,0h0l0,0h0l0,0h0l0,0h0l0,0h0l0,0h0l0,0h0l0,0h0l0,0h0l0,0h0l0,0h0l0,0h0l0,0h0l0,0h0l0,0h0l0,0h0l0,0h0l0,0h0l0,0h0l0,0h0l0,0h0l0,0h0l0,0h0l0,0h0l0,0h0l0,0h0l0,0h0l0,0h0l0,0h0l0,0h0l0,0h0l0,0h0l0,0h0l0,0h0l0,0h0l0,0h0l0,0h0l0,0h0l0,0h0l0,0h0l0,0h0l0,0h0l0,0h0l0,0h0l0,0h0l0,0h0l0,0h0l0,0h0l0,0h0l0,0h0l0,0h0l0,0h0l0,0h0l0,0h0l0,0h0l0,0h0l0,0h0l0,0h0l0,0h0l0,0h0l0,0h0l0,0h0l2.2,4.75c-.66.25-1.29.52-1.9.82Z"/><path class="cls-3" d="M332.52,408.09a8,8,0,0,0-2-3.79l6.08-3.51,0,0,0,0,0,0,0,0,0,0,0,0,0,0,0,0,0,0,0,0,0,0,0,0,0,0,0,0,0,0,0,0,0,0,0,0,0,0,0,0,0,0,0,0,0,0,0,0,0,0,0,0,0,0,0,0,0,0,0,0,0,0,0,0,0,0,0,0,0,0,0,0,0,0,0,0,0,0,0,0,0,0,0,0,0,0,0,0,0,0,0,0,0,0,0,0,0,0,0,0,0,0,0,0,0,0,0,0,0,0,0,0,0,0,0,0,0,0,0,0,0,0,0,0,0,0,0,0,0,0,0,0,0,0,0,0,0,0,0,0,0,0,0,0,0,0,0,0,0,0,0,0,0,0,0,0,0,0,0,0,0,0,0,0,0,0,0,0,0,0,0,0,0,0,0,0,0,0,0,0,0,0,0,0,0,0,0,0,0,0,0,0,0,0,0,0,0,0,0,0,0,0,0,0,0,0,0,0,0,0,0,0,0,0,0,0,0,0,0,0,0,0,0,0,0,0,0,0,0,0,0,0,0,0,0,0,0,0,0,0,0,0,0,0,0,0,0,0,0,0,0,0,0,0,0,0,0,0,0,0,0,0,0,0,0,0,0,0,0,0,0,0,0,0,0,0,0,0,0,0,0,0,0,0,0,0,0,0,0,0,0,0,0,0,0,0,0,0,0,0,0,0,0,0,0,0,0,0,0,0,0,0,0,0,0,0,0,0,0,0,0,0,0,0,0,0,0,0,0,0,0,0,0,0,0,0,0,0,0,0,0,0,0,0,0,0,0,0,0,0,0,0,0,0,0,0,0,0,0,0,0,0,0,0,0,0,0,0,0,0,0,0,0,0,0,0,0,0,0,0,0,0,0,0,0,0,0,0,0,0,0,0,0,0,0,0,0,0,0,0,0,0,0,0Z"/><path class="cls-4" d="M361,255.56c-13.8-18.27-13.53-45.86.61-63.87,9.61-12.23,24.47-20,32.33-33.38,8.07-13.76,7.3-30.95,13-45.86,8.33-22,31.78-37.25,55.25-36-14,9.23-17.18,30.19-13.42,46.5s11.44,32.08,10.82,48.8c-.59,16.18-9.07,31.27-20.26,43s-25,20.49-38.68,29.17c-6.31,4-12.76,8.07-20,9.91S365.53,261.53,361,255.56Z"/><path class="cls-5" d="M382.21,261.16a279.3,279.3,0,0,0,25.62-42,1.47,1.47,0,0,0,.24-.48q3.46-7,6.53-14.2a91.9,91.9,0,0,0,28-20,1.5,1.5,0,0,0-.05-2.1,1.48,1.48,0,0,0-2.1.05,89,89,0,0,1-24.19,17.94,279.59,279.59,0,0,0,9.92-28.78l.18-.14a180.36,180.36,0,0,0,21-23,1.48,1.48,0,0,0-2.36-1.8,177.47,177.47,0,0,1-17.29,19.45,279.28,279.28,0,0,0,7.85-43.59,1.48,1.48,0,1,0-3-.29q-1.35,13.64-4,27l-9-22.52a1.48,1.48,0,0,0-2.75,1.1l10.45,26.23a1.47,1.47,0,0,0,.2.34,276.61,276.61,0,0,1-8,28.68,202.12,202.12,0,0,1-17.82-27.26,1.48,1.48,0,0,0-2.61,1.42,205.08,205.08,0,0,0,19.28,29.2q-2.85,8.13-6.2,16.07a1.48,1.48,0,0,0-.28.67q-2.63,6.19-5.57,12.26a137.54,137.54,0,0,1-15.12-24.89,1.48,1.48,0,1,0-2.68,1.26,140.51,140.51,0,0,0,16.34,26.59,276.35,276.35,0,0,1-25.06,40.93,1.48,1.48,0,0,0,.14,1.93l.17.15A1.48,1.48,0,0,0,382.21,261.16Z"/><path class="cls-5" d="M459.58,171.77a55,55,0,0,0-.14-6.34,98.15,98.15,0,0,0-56.68,23.93c-20.9,18.27-33.45,41.44-34,68.51,3.71-.8,7.9-3,11.9-4.06,7.25-1.84,13.7-5.9,20-9.91,13.67-8.67,27.49-17.47,38.68-29.17S459,188,459.58,171.77Z"/><path class="cls-6" d="M370.1,266.15a126.6,126.6,0,0,0,126.36-85.31,98.08,98.08,0,0,0-84.74,13.76C387.08,211.95,371.63,236.06,370.1,266.15Z"/><path class="cls-5" d="M357.35,277.47a290.31,290.31,0,0,1,34.93-37.29,1.53,1.53,0,0,1,.41-.37q6.06-5.41,12.41-10.47a95.52,95.52,0,0,1,12.27-33.64,1.56,1.56,0,0,1,2.11-.53,1.54,1.54,0,0,1,.53,2.11,92.5,92.5,0,0,0-11.27,29.21,290.65,290.65,0,0,1,26.08-17.92,1.53,1.53,0,0,1,.09-.22A187.47,187.47,0,0,1,452.13,181a1.54,1.54,0,1,1,2.46,1.86,184.48,184.48,0,0,0-14.69,22.71,290.3,290.3,0,0,1,41.49-19.95,1.54,1.54,0,0,1,1.11,2.88q-13.29,5.13-26,11.54l25,2.75a1.54,1.54,0,0,1-.34,3.06l-29.18-3.2a1.52,1.52,0,0,1-.4-.1,287.45,287.45,0,0,0-26.52,15.92,210.09,210.09,0,0,0,32.25,10.3,1.54,1.54,0,1,1-.7,3,213.15,213.15,0,0,1-34.6-11.22q-7.35,5.11-14.38,10.66a1.54,1.54,0,0,1-.6.47q-5.48,4.36-10.74,9a143,143,0,0,0,29.12,8.25,1.54,1.54,0,1,1-.52,3,146.05,146.05,0,0,1-31.17-9,287.24,287.24,0,0,0-34.05,36.45,1.54,1.54,0,0,1-2,.39l-.19-.13A1.54,1.54,0,0,1,357.35,277.47Z"/><path class="cls-4" d="M210.06,370.87c14.23-18.85,14-47.3-.63-65.87-9.91-12.61-25.23-20.6-33.34-34.43-8.32-14.19-7.53-31.92-13.36-47.3-8.59-22.67-32.77-38.42-57-37.11,14.4,9.51,17.71,31.14,13.84,48s-11.79,33.08-11.16,50.33c.61,16.69,9.35,32.25,20.89,44.31s25.79,21.14,39.89,30.08c6.51,4.13,13.16,8.32,20.64,10.22S205.42,377,210.06,370.87Z"/><path class="cls-5" d="M188.22,376.64a288.05,288.05,0,0,1-26.42-43.27,1.52,1.52,0,0,1-.24-.49q-3.57-7.23-6.73-14.64a94.79,94.79,0,0,1-28.93-20.63,1.55,1.55,0,0,1,.05-2.16,1.53,1.53,0,0,1,2.16.05,91.79,91.79,0,0,0,25,18.5,288.35,288.35,0,0,1-10.23-29.68l-.19-.14A186,186,0,0,1,121,260.47a1.53,1.53,0,0,1,2.43-1.86,183,183,0,0,0,17.83,20.06,288,288,0,0,1-8.1-45,1.53,1.53,0,1,1,3-.3q1.39,14.07,4.17,27.88l9.25-23.23a1.53,1.53,0,0,1,2.84,1.13L141.7,266.25a1.51,1.51,0,0,1-.2.35,285.28,285.28,0,0,0,8.21,29.58,208.46,208.46,0,0,0,18.38-28.11,1.53,1.53,0,0,1,2.69,1.46,211.51,211.51,0,0,1-19.88,30.12q2.94,8.38,6.39,16.57a1.53,1.53,0,0,1,.29.69q2.72,6.39,5.74,12.64a141.85,141.85,0,0,0,15.6-25.67,1.53,1.53,0,1,1,2.77,1.3,144.91,144.91,0,0,1-16.85,27.42,285,285,0,0,0,25.84,42.21,1.53,1.53,0,0,1-.14,2l-.18.15A1.53,1.53,0,0,1,188.22,376.64Z"/><path class="cls-5" d="M108.42,284.45a56.77,56.77,0,0,1,.15-6.53A101.23,101.23,0,0,1,167,302.6c21.56,18.85,34.5,42.74,35.09,70.66-3.82-.83-8.14-3.14-12.27-4.19-7.47-1.89-14.13-6.09-20.64-10.22-14.1-8.95-28.35-18-39.89-30.08S109,301.14,108.42,284.45Z"/><path class="cls-6" d="M200.7,381.78a130.57,130.57,0,0,1-130.32-88A101.16,101.16,0,0,1,157.79,308C183.19,325.89,199.12,350.75,200.7,381.78Z"/><path class="cls-5" d="M213.86,393.46a299.42,299.42,0,0,0-36-38.46,1.57,1.57,0,0,0-.42-.38q-6.25-5.58-12.8-10.8A98.52,98.52,0,0,0,152,309.12a1.61,1.61,0,0,0-2.18-.55,1.59,1.59,0,0,0-.55,2.18,95.4,95.4,0,0,1,11.62,30.12,299.76,299.76,0,0,0-26.9-18.48,1.58,1.58,0,0,0-.09-.23,193.35,193.35,0,0,0-17.75-28.23,1.59,1.59,0,1,0-2.53,1.92,190.27,190.27,0,0,1,15.15,23.43,299.4,299.4,0,0,0-42.79-20.57,1.59,1.59,0,0,0-1.15,3q13.71,5.29,26.78,11.9l-25.83,2.83a1.59,1.59,0,0,0,.35,3.16l30.09-3.3a1.57,1.57,0,0,0,.41-.11,296.47,296.47,0,0,1,27.35,16.42,216.67,216.67,0,0,1-33.26,10.63,1.59,1.59,0,1,0,.72,3.1,219.84,219.84,0,0,0,35.68-11.57q7.59,5.27,14.83,11a1.59,1.59,0,0,0,.61.49q5.65,4.49,11.08,9.26a147.45,147.45,0,0,1-30,8.51,1.59,1.59,0,1,0,.54,3.13,150.63,150.63,0,0,0,32.14-9.28,296.25,296.25,0,0,1,35.12,37.59,1.59,1.59,0,0,0,2,.41l.2-.13A1.59,1.59,0,0,0,213.86,393.46Z"/><path class="cls-7" d="M395.18,29.16,158,166.07c-8.38,4.84-15.24,16.66-15.24,26.28l1.14,258.7c0,9.62,6.86,13.53,15.24,8.69L396.32,322.83c8.38-4.84,15.24-16.66,15.24-26.28l-1.14-258.7C410.42,28.23,403.56,24.32,395.18,29.16Z"/><path class="cls-8" d="M392.36,31.33,160.91,165c-8.18,4.72-14.87,16.26-14.87,25.65l.39,255.95c0,9.39,6.69,13.2,14.87,8.48L392.75,321.41c8.18-4.72,14.87-16.27,14.87-25.65l-.39-255.95C407.23,30.42,400.54,26.61,392.36,31.33Z"/><path class="cls-9" d="M392.36,31.33,160.91,165c-8.18,4.72-14.87,16.26-14.87,25.65v42.88L407.23,82.69V39.81C407.23,30.42,400.54,26.61,392.36,31.33Z"/><path class="cls-10" d="M204.19,176.05a10,10,0,0,0,4.54-7.82c0-2.87-2-4-4.54-2.58a10,10,0,0,0-4.53,7.82C199.66,176.34,201.7,177.5,204.19,176.05Z"/><path class="cls-10" d="M186.05,186.53a10,10,0,0,0,4.53-7.82c0-2.87-2-4-4.53-2.59a10,10,0,0,0-4.53,7.82C181.52,186.81,183.56,188,186.05,186.53Z"/><path class="cls-10" d="M167.92,197a10,10,0,0,0,4.53-7.82c0-2.87-2-4-4.53-2.59a10,10,0,0,0-4.54,7.82C163.38,197.28,165.42,198.44,167.92,197Z"/><path class="cls-11" d="M192.7,353.17l16.35,10,38.23-40.94L262.53,267a5.54,5.54,0,0,0-2.44-6.2l-10-6.16a5.51,5.51,0,0,0-5.59-.1L197.32,281.2a9.11,9.11,0,0,0-4.62,7.93Z"/><path class="cls-12" d="M209.05,363.21l54.58-30.91V267.55a2.69,2.69,0,0,0-4-2.34l-46,26a9.11,9.11,0,0,0-4.62,7.93Z"/><path class="cls-13" d="M229.78,310.69c0-4.81,3.07-10.44,6.85-12.59s6.85,0,6.85,4.83a16.42,16.42,0,0,1-3.79,9.9l2.2,11-10.52,6,2.2-13.53C231.33,316.13,229.78,314.09,229.78,310.69Z"/><path class="cls-12" d="M213.51,283.49A3.51,3.51,0,0,0,217,280V256.25c0-8.4,5.65-18.52,12.35-22.09,2.43-1.3,4.6-1.51,6.13-.59,1.85,1.11,2.91,3.85,2.91,7.51V264.8a3.51,3.51,0,1,0,7,0V241.08c0-6.19-2.31-11.13-6.32-13.54-3.72-2.24-8.36-2.09-13,.42-9,4.81-16.06,17.24-16.06,28.29V280A3.51,3.51,0,0,0,213.51,283.49Z"/><path id="_Compound_Path_" data-name="&lt;Compound Path&gt;" class="cls-14" d="M336.83,208.47c3.33-4.42,5.54-9.66,5.54-14,0-6.81-5.54-8.69-12.35-4.18s-12.35,13.7-12.35,20.51c0,4.29,2.2,6.62,5.54,6.63-7.54,7.77-12.95,18.59-12.95,27.08l3.29-2.18c0-9.08,7.39-21.35,16.47-27.35s16.47-3.5,16.47,5.58l3.29-2.18C349.78,209.94,344.37,206.27,336.83,208.47ZM330,211.74c-5,3.3-9.06,1.92-9.06-3.07s4.06-11.74,9.06-15,9.06-1.92,9.06,3.07S335,208.44,330,211.74Z"/><polygon class="cls-11" points="393.81 219.34 278.91 285.68 278.91 269.53 393.81 203.2 393.81 219.34"/><polygon class="cls-11" points="393.81 245.57 278.91 311.91 278.91 295.76 393.81 229.43 393.81 245.57"/><g id="_Group_" data-name="&lt;Group&gt;"><circle id="_Path_" data-name="&lt;Path&gt;" class="cls-14" cx="318.68" cy="280.91" r="3.45" transform="translate(26.57 589.36) rotate(-87.95)"/><circle id="_Path_2" data-name="&lt;Path&gt;" class="cls-14" cx="331.61" cy="273.32" r="3.45" transform="translate(46.63 594.96) rotate(-87.95)"/><path id="_Path_3" data-name="&lt;Path&gt;" class="cls-14" d="M348,265.85c-.07,1.9,1.83,3.39-.07,3.32a3.45,3.45,0,1,1,.25-6.9C350.06,262.35,348.05,263.95,348,265.85Z"/><circle id="_Path_4" data-name="&lt;Path&gt;" class="cls-14" cx="357.47" cy="258.13" r="3.45" transform="translate(86.74 606.16) rotate(-87.95)"/><circle id="_Path_5" data-name="&lt;Path&gt;" class="cls-14" cx="370.39" cy="250.54" r="3.45" transform="translate(106.79 611.76) rotate(-87.95)"/></g><path class="cls-12" d="M381,294.88l-79.16,45.7a2.44,2.44,0,0,1-3.66-2.11V323a2.44,2.44,0,0,1,1.22-2.11l79.16-45.7a2.44,2.44,0,0,1,3.66,2.11v15.49A2.44,2.44,0,0,1,381,294.88Z"/><path class="cls-13" d="M323.17,322.69v-9.39l2.21-1.28v7.34l3.15-1.82v2Z"/><path class="cls-13" d="M337.49,309.72a8.46,8.46,0,0,1-1,4.19,7.72,7.72,0,0,1-3,2.94q-1.92,1.11-3,.47t-1-3a8.39,8.39,0,0,1,1-4.17,7.75,7.75,0,0,1,3-2.95q2-1.13,3-.48T337.49,309.72ZM331.86,313q0,2.72,1.65,1.77a3,3,0,0,0,1.24-1.38,5.59,5.59,0,0,0,.41-2.3,2.83,2.83,0,0,0-.41-1.84q-.41-.43-1.23,0Q331.86,310.22,331.86,313Z"/><path class="cls-13" d="M342.25,306.18l3.53-2v5.06a16,16,0,0,1-3.16,2.39q-1.89,1.09-2.92.43t-1-3a8.11,8.11,0,0,1,1.13-4.19,8.57,8.57,0,0,1,3.17-3.09,8.05,8.05,0,0,1,1.46-.67,5,5,0,0,1,1.19-.27l-.7,2.39a4,4,0,0,0-1.94.62,3.79,3.79,0,0,0-1.5,1.59,5.11,5.11,0,0,0-.53,2.37,2.29,2.29,0,0,0,.48,1.73q.48.41,1.38-.11a6.31,6.31,0,0,0,.91-.63v-1.47l-1.46.84Z"/><path class="cls-13" d="M347.45,308.67v-9.39l2.22-1.28v9.39Z"/><path class="cls-13" d="M359.23,301.87l-2.9,1.67-3-4.89-.05,0q.11,1.5.11,2.32v4.23l-2,1.13V297l2.89-1.67,3,4.8,0,0q-.08-1.37-.08-2.23v-4.24l2-1.14Z"/><path class="cls-15" d="M492.56,43l-99.67,57.55a14.16,14.16,0,0,0-6.4,11v82.28c0,4,2.88,5.69,6.4,3.65L492.56,140a14.16,14.16,0,0,0,6.4-11V46.68C499,42.64,496.09,41,492.56,43Z"/><path class="cls-16" d="M490.78,46.15l-95.25,55a13.54,13.54,0,0,0-6.12,10.56v78.63c0,3.86,2.75,5.43,6.12,3.49l95.25-55a13.54,13.54,0,0,0,6.12-10.56V49.64C496.9,45.77,494.14,44.2,490.78,46.15Z"/><path id="_Compound_Path_2" data-name="&lt;Compound Path&gt;" class="cls-13" d="M444.65,100.89c1.95-2.58,3.23-5.64,3.23-8.15,0-4-3.23-5.07-7.21-2.44s-7.21,8-7.21,12c0,2.51,1.29,3.87,3.23,3.87-4.41,4.54-7.56,10.85-7.56,15.82l1.92-1.27c0-5.3,4.31-12.47,9.62-16s9.62-2,9.62,3.26l1.92-1.27C452.21,101.75,449.06,99.6,444.65,100.89Zm-4,1.91c-2.92,1.93-5.29,1.12-5.29-1.79s2.37-6.86,5.29-8.78S446,91.1,446,94,443.59,100.87,440.67,102.8Z"/><polygon class="cls-13" points="486.69 106.18 400.16 156.14 400.16 143.98 486.69 94.02 486.69 106.18"/><polygon class="cls-13" points="486.69 125.24 400.16 175.2 400.16 163.04 486.69 113.08 486.69 125.24"/><g id="_Group_2" data-name="&lt;Group&gt;"><circle id="_Path_6" data-name="&lt;Path&gt;" class="cls-14" cx="430.11" cy="151.85" r="2.6" transform="translate(263 576.27) rotate(-87.95)"/><circle id="_Path_7" data-name="&lt;Path&gt;" class="cls-14" cx="439.85" cy="146.14" r="2.6" transform="translate(278.11 580.49) rotate(-87.95)"/><circle id="_Path_8" data-name="&lt;Path&gt;" class="cls-14" cx="449.58" cy="140.42" r="2.6" transform="translate(293.21 584.7) rotate(-87.95)"/><circle id="_Path_9" data-name="&lt;Path&gt;" class="cls-14" cx="459.32" cy="134.7" r="2.6" transform="translate(308.31 588.92) rotate(-87.95)"/><circle id="_Path_10" data-name="&lt;Path&gt;" class="cls-14" cx="469.06" cy="128.98" r="2.6" transform="translate(323.42 593.13) rotate(-87.95)"/></g><path class="cls-17" d="M207.93,502.92c.71,8.4-11.44,18.39-27.14,22.29s-29,.26-29.69-8.14,11.44-18.39,27.14-22.29S207.22,494.52,207.93,502.92Z"/><path class="cls-17" d="M474.65,461.87c.89,10.57-14.39,23.12-34.12,28s-36.45.33-37.34-10.24,14.39-23.12,34.12-28S473.77,451.3,474.65,461.87Z"/><path class="cls-18" d="M193.06,336.53c8.8,3.61,9.18,24.62,11.14,27.3,3.07,4.2,15.52,20.18,17,22.75s-4.23,6.7-6,4.86c-1.44-1.46-13.74-13.81-18.7-18.8a7.51,7.51,0,0,1-2.18-5Z"/><path class="cls-3" d="M160.37,503.87s1.19-45,1.19-49.77-5-36.91-.43-51.62l35,3.25s.69,14.85.69,16c0,1.74-5.3,48-4.63,70.55l-13.71,1.3s-.25-29.83,2.41-41.45c.13-7-.41-22.75-.41-22.75s-4.62,21.09-5.11,26-3.55,49.41-3.55,49.41A112.08,112.08,0,0,0,160.37,503.87Z"/><path class="cls-6" d="M151.64,369.3s-1.61-5.75,2.74-14.92c2.49-5.25,9.57-9.66,18.09-13.8,16.24-7.9,22.58-5.89,24.73,1.78,1,3.57,1.91,17.12.86,24.62-1.72,12.27-2.43,32.58-1.37,40.25.21,1.53-4.39,5.36-13.94,7.45-6.93,1.51-22.7,1-24.25-5.43L159.4,372Z"/><ellipse class="cls-19" cx="179.78" cy="342.93" rx="7.43" ry="4.73"/><path class="cls-19" d="M173.5,330.75H186.7a0,0,0,0,1,0,0V344.1a.85.85,0,0,1-.85.85H175.14a1.64,1.64,0,0,1-1.64-1.64V330.75A0,0,0,0,1,173.5,330.75Z"/><path class="cls-20" d="M174.94,330.75a13.87,13.87,0,0,0,9.29,13.37h0a1.87,1.87,0,0,0,2.47-1.77v-11.6Z"/><path class="cls-19" d="M191.59,325c-.58,8.75-2.24,15.59-6.73,15.59-6.66,0-11.37-7-11.37-15.77s.38-13.56,7-13.56S192.16,316.4,191.59,325Z"/><path class="cls-21" d="M173.5,337a50.49,50.49,0,0,1,1-10.15c.65-3.32,1.14-4.5,4-5.14.84-.19,7.4,1.87,9,1.67,2.07-.25,3.68-4,4.11-1.14,0,0,1.17-2-.28-6.91-1.2-4.08-19.27-9.86-21.51,5.79C168.65,329.07,172.35,332.83,173.5,337Z"/><path class="cls-19" d="M176.72,328.54c0,2.15.1,4.29-1.58,4.29s-3.79-2.7-3.79-4.85.65-3.33,2.33-3.33S176.72,326.39,176.72,328.54Z"/><path class="cls-19" d="M192.81,406.05h-.17c-4.07-.11-4.76-5.15-.76-5.95a24.15,24.15,0,0,0,4.73-1.11l2.12-3.25c.46-.71,2.85-3,3.54-2.55s-1.15,3-1.39,3.69c0,0-1.8,3,.45,1.95,1.95-.94,6.82-9,6.56-3C207.59,402.53,198.4,406.1,192.81,406.05Z"/><path class="cls-18" d="M151.47,365.44s1.67,27.39,2.22,30.05,9.39,16.5,38.86,11.65a33.72,33.72,0,0,0,.51-8.78c-5.78-.35-23.56-.31-27.55-6.45-1.35-2.09-1.79-14.71-1.79-14.71a10.63,10.63,0,0,0-12.26-11.76Z"/><path class="cls-21" d="M178.61,492.86s.11,5.36,0,6.75S191.36,509,197.14,510a6.44,6.44,0,0,0,6.3-2,2.75,2.75,0,0,0-.43-3.91,72.39,72.39,0,0,1-11.67-11.83Z"/><path class="cls-21" d="M161.26,503.66S160,510.37,160.2,512s1.27,11.89,10.06,11.46,3-11,2.46-12.42-1.71-7.35-1.71-7.35Z"/><path class="cls-19" d="M186.61,337.72a2,2,0,0,1,.59-2.1c.52-.5,1.5-.78,1.83-.14s-.47,2.06-.91,2.35S186.69,338.12,186.61,337.72Z"/><polygon class="cls-12" points="202.86 396.32 210.96 395.47 223.01 381.94 214.9 382.79 202.86 396.32"/><polygon class="cls-22" points="202.86 396.32 200.89 394.16 212.93 380.63 214.9 382.79 202.86 396.32"/><polygon class="cls-22" points="223.01 381.94 221.04 379.78 212.93 380.63 214.9 382.79 223.01 381.94"/><path class="cls-19" d="M220.48,384.78c-1.09,1.23-2.39,1.46-4.65,1.74s-4.67.28-5.05,1.29,1.9,1.14,1.9,1.14,3.68,0,3.5.32-3.45.76-4.57.82c-2,.09-2.9,0-3,1-.14,1.45,5.46.45,5.36,1s-4.49,1-4.85,1.28,0,.75,1.62,1,5.38.15,7.1-1c3.75-2.4,5.89-6.65,5.17-8.67l-.72-2Z"/><path class="cls-21" d="M177.74,333.36h0c-1-3.35-2.74-8.72,0-11.4h-2.8v8.6A2.8,2.8,0,0,0,177.74,333.36Z"/><path class="cls-19" d="M380,294.67s-.36-3.36-.65-4.46-.9-5.46-2.05-6.89-1.16,2.1-1.48,3.09-1.85,1.55-3,.1-2.32-5.29-3.37-7.15-6,4.57-5.37,8a13.61,13.61,0,0,0,4.61,8.34c2.49,2.19,5.52,2.74,6.47,3.84Z"/><path class="cls-21" d="M445.89,462.2s.46,1.37-5.43,1.69-12.15.32-13,4.17,4.62,8.37,11,9.25c5.53.76,15.08.19,20.48-.88.9-.18,1.68-.6,1.8-1.51a20.18,20.18,0,0,0-.77-8.91C458.34,460.81,445.89,462.2,445.89,462.2Z"/><path class="cls-21" d="M429.79,466.57s.46,1.36-5.43,1.68-12.15.32-13,4.17,3.77,6.9,10.19,7.79c5.53.76,16.6,1.28,21,1.46a1.72,1.72,0,0,0,1.8-1.51,44.54,44.54,0,0,0,.31-8.86C444.32,465.85,429.79,466.57,429.79,466.57Z"/><path class="cls-23" d="M458.92,371.16s.64,47.33,1.06,53.09,1.71,40.65,1.71,40.65-9.89,5-17.57,1.57l-4.39-90Z"/><path class="cls-3" d="M445.06,374.14v47.41c.43,13.86,1.21,50.21,1.21,50.21a25.54,25.54,0,0,1-18.48-4.87c.64-6.18,0-41.15,0-41.15-2.32-18.14-3.7-47.3-3.94-52.66,0-.56,0-.86,0-.86Z"/><path class="cls-18" d="M465.74,304.32s7.25,22.57,5.68,34.5a63.74,63.74,0,0,1-12.51,8.1Z"/><ellipse class="cls-19" cx="439.08" cy="283.43" rx="12.76" ry="15.72" transform="translate(-0.75 1.16) rotate(-0.15)"/><path class="cls-6" d="M448.24,295.62S439,295,431.81,300a5.51,5.51,0,0,1-2,2.48c-1.44,1-12.13,5-12.13,5s6.68,45.06,3.06,65.53c0,0,15.57,12.15,39.87,0,0,0,3.55-55.83,5.12-68.76C465.74,304.32,461.69,299.31,448.24,295.62Z"/><path class="cls-18" d="M417.7,307.55l-18.15,4.17L380.15,292s-6.81,2.1-8.18,7.93L395.1,326.2l28.44-2.48S430.35,309.54,417.7,307.55Z"/><path class="cls-21" d="M434.45,267s-13.92,2.85-10.06,10.27c2.25,4.33,15.58,5.78,15.58,5.78s-7.06,3.87-1.85,5.67c0,0,.83,6.87,10.28,6.27,0,0,14.22-18.52-3.15-27.3A23,23,0,0,0,434.45,267Z"/><path class="cls-12" d="M241,42.73c.71,5.18-2.14,11.36-6.35,13.79s-8.16.18-8.88-5,2.14-11.32,6.34-13.74S240.31,37.58,241,42.73ZM234.2,53.18c2.74-1.58,4.55-5.52,4.12-8.9s-3-4.74-5.76-3.19A9.53,9.53,0,0,0,228.49,50c.46,3.37,3,4.77,5.72,3.22"/><path class="cls-3" d="M114.82,154c.71,5.18-2.14,11.36-6.35,13.79s-8.16.18-8.88-5,2.14-11.32,6.34-13.74S114.12,148.86,114.82,154ZM108,164.46c2.74-1.58,4.55-5.52,4.12-8.9s-3-4.74-5.76-3.19a9.53,9.53,0,0,0-4.07,8.87c.46,3.37,3,4.77,5.72,3.22"/><path class="cls-12" d="M450.47,28.1c.71,5.18-2.14,11.36-6.35,13.79s-8.16.18-8.88-5,2.14-11.32,6.34-13.74S449.77,23,450.47,28.1Zm-6.81,10.45c2.74-1.58,4.55-5.52,4.12-8.9s-3-4.74-5.76-3.19A9.53,9.53,0,0,0,438,35.33c.46,3.37,3,4.77,5.72,3.22"/><path class="cls-12" d="M159.84,107.84a5.72,5.72,0,0,0-2.15,2.3,22,22,0,0,1-1.21,2.17,3.7,3.7,0,0,1-1.18,1.05,2,2,0,0,1-1.79.25,6.26,6.26,0,0,0-1.74-.59,3,3,0,0,0-1.75.49,1,1,0,0,0-.4.87c0,.34.3.48.57.33a2,2,0,0,1,1.79-.25,6.44,6.44,0,0,0,1.74.59,3,3,0,0,0,1.7-.46,5.81,5.81,0,0,0,2.2-2.33,21.42,21.42,0,0,1,1.2-2.16A3.76,3.76,0,0,1,160,109a1.94,1.94,0,0,1,1.78-.24,6.66,6.66,0,0,0,1.73.6,3,3,0,0,0,1.7-.46,5.8,5.8,0,0,0,2.2-2.33,23.71,23.71,0,0,1,1.2-2.16,3.81,3.81,0,0,1,1.18-1.06,1.93,1.93,0,0,1,1.77-.24,7,7,0,0,0,1.74.59,3,3,0,0,0,1.7-.46,5.77,5.77,0,0,0,2.2-2.33,23.41,23.41,0,0,1,1.2-2.16,3.78,3.78,0,0,1,1.18-1.05,1,1,0,0,0,.41-.89.37.37,0,0,0-.57-.31,5.68,5.68,0,0,0-2.14,2.3,21.71,21.71,0,0,1-1.21,2.17,3.72,3.72,0,0,1-1.18,1.05,2,2,0,0,1-1.78.24,6.33,6.33,0,0,0-1.74-.59,3,3,0,0,0-1.75.48,5.69,5.69,0,0,0-2.15,2.3,21.7,21.7,0,0,1-1.21,2.17,3.69,3.69,0,0,1-1.18,1.05,1.93,1.93,0,0,1-1.78.24,6.42,6.42,0,0,0-1.74-.59A3.06,3.06,0,0,0,159.84,107.84Z"/><path class="cls-3" d="M314.14,32.3a13.25,13.25,0,0,0-5,5.34,50.94,50.94,0,0,1-2.81,5,8.58,8.58,0,0,1-2.73,2.44,4.56,4.56,0,0,1-4.14.59c-1.15-.39-2.32-1.23-4-1.37a7.06,7.06,0,0,0-4.06,1.13,2.2,2.2,0,0,0-.94,2c.11.78.7,1.11,1.32.75a4.52,4.52,0,0,1,4.14-.58c1.15.39,2.32,1.22,4,1.37a6.89,6.89,0,0,0,3.95-1.07,13.48,13.48,0,0,0,5.11-5.4,49.45,49.45,0,0,1,2.79-5,8.71,8.71,0,0,1,2.74-2.45,4.5,4.5,0,0,1,4.12-.57c1.15.39,2.32,1.22,4,1.38a7,7,0,0,0,3.95-1.07,13.45,13.45,0,0,0,5.1-5.4,55.16,55.16,0,0,1,2.79-5A8.84,8.84,0,0,1,337.24,22a4.47,4.47,0,0,1,4.1-.55c1.17.37,2.34,1.22,4,1.37a6.84,6.84,0,0,0,3.94-1.07,13.37,13.37,0,0,0,5.11-5.4,54,54,0,0,1,2.79-5,8.74,8.74,0,0,1,2.73-2.44,2.2,2.2,0,0,0,.95-2.06.85.85,0,0,0-1.33-.72,13.18,13.18,0,0,0-5,5.33,50.29,50.29,0,0,1-2.81,5,8.62,8.62,0,0,1-2.72,2.44,4.52,4.52,0,0,1-4.12.57c-1.15-.39-2.32-1.23-4-1.37a7.06,7.06,0,0,0-4,1.12,13.19,13.19,0,0,0-5,5.34,50.29,50.29,0,0,1-2.81,5A8.55,8.55,0,0,1,326.33,32a4.48,4.48,0,0,1-4.12.57c-1.15-.39-2.32-1.22-4-1.37A7.1,7.1,0,0,0,314.14,32.3Z"/></g></svg>